<svg width="200" height="235" viewBox="0 0 200 235" xmlns="http://www.w3.org/2000/svg" xmlns:xlink="http://www.w3.org/1999/xlink">
  <!-- 
    SVG Logo for GrowTechAfrica
    This is a stylized vector representation of the original logo.
  -->
  
  <!-- Define gradients -->
  <defs>
    <linearGradient id="greenGradient" x1="0%" y1="0%" x2="0%" y2="100%">
      <stop offset="0%" style="stop-color:#6ee7b7;stop-opacity:1" />
      <stop offset="100%" style="stop-color:#16a34a;stop-opacity:1" />
    </linearGradient>
    <linearGradient id="blueGradient" x1="0%" y1="0%" x2="0%" y2="100%">
      <stop offset="0%" style="stop-color:#3b82f6;stop-opacity:1" />
      <stop offset="100%" style="stop-color:#1e3a8a;stop-opacity:1" />
    </linearGradient>

    <!-- Africa continent shape as a path -->
    <!-- This path is a simplified representation of the African continent. -->
    <path id="africa-shape" d="M100.1,1.1C99.5,1,99,1,98.4,1.1C96.1,1.3,94,2,92.1,3.1C83.4,8,75.9,15.2,70.1,23.5C65.3,30.3,62.4,38,61.4,46.1C58.8,47.3,56.3,48.8,54,50.6C44.3,58.2,36.4,68.2,30.9,79.5C28.5,84.4,27.1,89.8,26.8,95.3C26.7,98.1,27.1,100.8,27.9,103.5C22.2,104.9,17,107.6,12.5,111.5C3.6,119.5,0.1,131.2,3.1,142.2C4.1,145.9,6.1,149.3,8.8,152.2C10.3,153.8,12,155.2,13.8,156.4C14.1,162.1,15.9,167.6,19.1,172.5C23.1,178.6,29,183.5,36.1,186.4C40.2,188.1,44.7,188.8,49.2,188.5C52.8,190.8,56.8,192.6,61.1,193.8C62.1,198.8,64.4,203.5,67.9,207.5C75.7,216.4,87.3,222.3,99.5,222.3C102.3,222.3,105,222,107.7,221.4C119.8,218.9,129.9,211.3,136.2,200.5C138,197.6,139.3,194.5,140,191.3C144.1,190.4,148,188.7,151.6,186.3C161.1,179.8,168.2,170.1,171.6,159.1C172.5,156.1,172.9,153,172.8,149.9C177.1,146.4,180.6,142.1,183.1,137.2C188.2,127.2,188.4,115.6,183.7,105.7C182.2,102.6,180.2,99.8,177.8,97.5C178.9,92.1,178.6,86.5,176.9,81.2C174.1,72.2,168.5,64.2,160.9,58.4C156.1,54.8,150.6,52.2,144.9,50.8C142.1,38.1,135.2,26.6,125.2,18.1C118.3,12.2,109.8,8.1,100.1,7.2C100.1,5.2,100.1,3.1,100.1,1.1z"/>
    
    <!-- Clipping paths to divide the continent -->
    <clipPath id="clip-left">
      <rect x="0" y="0" width="100" height="235" />
    </clipPath>
    <clipPath id="clip-right">
      <rect x="100" y="0" width="100" height="235" />
    </clipPath>
  </defs>

  <!-- Left side: Plant/Growth theme -->
  <g clip-path="url(#clip-left)">
    <use xlink:href="#africa-shape" fill="url(#greenGradient)" />
    <!-- Stylized plant stem and leaves -->
    <path d="M100 210 V 80 L 80 100 M 100 120 L 120 140" stroke="white" stroke-width="3" fill="none" stroke-linecap="round" />
    <path d="M100 150 L 80 170" stroke="white" stroke-width="3" fill="none" stroke-linecap="round"/>
    <path d="M100 80 C 80 70, 80 50, 90 40" stroke="white" stroke-width="3" fill="none"/>
    <path d="M100 80 C 120 70, 120 50, 110 40" stroke="white" stroke-width="3" fill="none"/>
     <circle cx="90" cy="35" r="5" fill="white"/>
     <circle cx="110" cy="35" r="5" fill="white"/>
  </g>

  <!-- Right side: Tech/Circuit theme -->
  <g clip-path="url(#clip-right)">
    <use xlink:href="#africa-shape" fill="url(#blueGradient)" />
    <!-- Stylized circuit lines and nodes -->
    <path d="M100 210 V 80 H 130" stroke="white" stroke-width="2" fill="none"/>
    <path d="M110 90 H 140 V 120 H 120" stroke="white" stroke-width="2" fill="none"/>
    <path d="M115 140 H 150 V 170" stroke="white" stroke-width="2" fill="none"/>
    <circle cx="100" cy="80" r="4" fill="white"/>
    <circle cx="130" cy="80" r="4" fill="white"/>
    <circle cx="110" cy="90" r="4" fill="white"/>
    <circle cx="140" cy="90" r="4" fill="white"/>
    <circle cx="140" cy="120" r="4" fill="white"/>
    <circle cx="120" cy="120" r="4" fill="white"/>
    <circle cx="115" cy="140" r="4" fill="white"/>
    <circle cx="150" cy="140" r="4" fill="white"/>
    <circle cx="150" cy="170" r="4" fill="white"/>
    <circle cx="100" cy="210" r="4" fill="white"/>
  </g>
</svg>
